<svg width="28" height="52" viewBox="0 0 28 52" fill="none" xmlns="http://www.w3.org/2000/svg">
<path d="M20.243 15.8586C19.0666 11.9527 14.6738 9.77448 14.2982 6.03458C14.297 6.02566 14.2926 6.01749 14.2858 6.01156C14.2791 6.00564 14.2704 6.00237 14.2614 6.00237C14.2524 6.00237 14.2437 6.00564 14.2369 6.01156C14.2302 6.01749 14.2258 6.02566 14.2246 6.03458C14.2021 6.37781 14.1448 6.71786 14.0534 7.04946C14.0463 7.07761 14.0301 7.1026 14.0072 7.12046C13.9843 7.13831 13.9561 7.14801 13.9271 7.14801C13.8981 7.14801 13.8699 7.13831 13.847 7.12046C13.8241 7.1026 13.8079 7.07761 13.8008 7.04946C13.5971 6.38741 13.3653 4.52625 14.7252 0.163996C14.733 0.135057 14.7306 0.104321 14.7183 0.0769737C14.7061 0.0496261 14.6847 0.0273411 14.658 0.0138788C14.6312 0.00041649 14.6006 -0.00339908 14.5713 0.00307613C14.5421 0.00955133 14.516 0.025921 14.4974 0.0494226C4.64342 14.7506 22.9543 13.6459 17.891 27.0659C17.2934 28.6472 22.0123 21.7376 20.243 15.8586Z" fill="white"/>
<path d="M10.5135 9.6461C11.3324 8.55896 9.92369 10.5874 10.6762 13.4498C10.6847 13.4811 10.7856 12.9368 10.9555 12.778C10.9655 12.7689 10.9778 12.7628 10.9911 12.7605C11.0044 12.7582 11.0181 12.7598 11.0306 12.7651C11.043 12.7704 11.0536 12.7791 11.0612 12.7903C11.0688 12.8015 11.073 12.8146 11.0733 12.8281C11.087 13.3098 11.2856 15.6449 13.7847 17.8817C16.3027 20.1348 17.7824 24.0823 16.1217 27.6393C16.1217 27.6393 14.2514 31.622 10.9269 29.3C10.8618 29.2557 9.46019 31.3994 7.32626 31.3994C7.32626 31.3994 5.84592 31.3122 4.94561 30.2231C4.93088 30.2059 4.91193 30.1929 4.89062 30.1853C4.86932 30.1777 4.84641 30.1757 4.82413 30.1797C4.80186 30.1836 4.78099 30.1933 4.7636 30.2078C4.7462 30.2222 4.73287 30.241 4.72493 30.2621C4.58562 30.6475 4.22822 31.4339 3.48805 31.9996C3.23077 32.1903 3.02642 32.4435 2.89436 32.7352C2.3944 33.8881 4.19633 32.842 4.35256 32.4C4.37274 32.3414 4.79979 33.3914 3.13587 35.5377C1.10545 38.1573 3.63323 39.8648 4.82843 41.3868C6.23196 43.179 6.36671 45.5648 4.67936 49.472C4.66325 49.5088 4.63512 49.539 4.59959 49.5577C4.56405 49.5764 4.52322 49.5825 4.48379 49.5749C4.44436 49.5673 4.40867 49.5466 4.38258 49.5161C4.35649 49.4856 4.34154 49.4471 4.3402 49.407C4.31871 48.0659 4.42157 45.5798 1.91983 43.5247C1.22588 42.9544 -1.79078 40.4475 1.52924 35.4687C2.25769 34.3751 0.741551 33.034 3.45486 30.8467C5.48658 29.2095 2.4914 28.0175 4.51791 24.6793C5.97091 22.285 6.54443 23.4691 6.76772 17.6864C6.80547 16.7138 10.3638 21.2239 7.94339 25.2476C5.90581 28.636 9.72254 28.3964 8.84306 27.433C8.35612 26.8992 7.89132 25.8569 9.8293 24.9176C11.0772 24.3121 14.6466 25.4572 12.3174 26.9226C11.2869 27.5703 12.9443 27.7838 13.3088 27.6094C19.3128 24.7366 3.12741 19.4545 10.5135 9.6461Z" fill="white"/>
<path d="M21.4042 24.0746C21.4693 23.9562 21.7088 23.9731 21.7297 24.1189C21.7707 24.4151 22.9236 24.7608 23.5029 25.042C23.7531 25.1631 23.9506 25.3712 24.0584 25.6274C24.1663 25.8836 24.1771 26.1702 24.0888 26.4338C23.8284 27.2215 23.3825 28.3458 22.7667 29.2272C22.7442 29.262 22.7147 29.2917 22.68 29.3143C22.6452 29.3369 22.6061 29.352 22.5652 29.3584C22.5243 29.3649 22.4824 29.3626 22.4425 29.3518C22.4025 29.3409 22.3652 29.3218 22.3331 29.2955C22.29 29.2583 22.2594 29.2088 22.2452 29.1536C22.2318 29.0878 22.2003 29.0269 22.1543 28.9779C22.1084 28.9288 22.0497 28.8934 21.9848 28.8757C18.3615 28.1628 20.6412 25.4079 21.4042 24.0746Z" fill="white"/>
<path d="M16.3734 33.706C16.5245 32.9424 16.8942 31.7081 17.7158 31.3885C17.7473 31.376 17.7758 31.3569 17.7994 31.3324C17.8229 31.3079 17.8409 31.2786 17.8521 31.2466C17.8633 31.2146 17.8676 31.1805 17.8645 31.1467C17.8614 31.1129 17.8511 31.0801 17.8342 31.0506C17.5563 30.5526 16.4294 29.3047 14.7173 31.0305C11.7384 34.0328 6.59433 39.2557 7.22188 33.2594C7.2243 33.2373 7.22195 33.2148 7.21499 33.1936C7.20802 33.1725 7.1966 33.153 7.18149 33.1366C7.16638 33.1202 7.14793 33.1072 7.12739 33.0985C7.10685 33.0899 7.08468 33.0857 7.06239 33.0863C4.67913 33.1344 3.12002 39.6612 7.10731 40.2002C8.49325 40.3877 9.75681 39.3188 11.1564 37.5312C12.7976 35.4344 13.94 34.3726 15.6749 34.3088C15.8422 34.3015 16.002 34.238 16.1288 34.1286C16.2555 34.0192 16.3417 33.8704 16.3734 33.706Z" fill="white"/>
<path d="M26.7062 34.2664C24.8118 32.1319 25.0136 29.9504 25.2668 28.9199C25.2791 28.8684 25.2758 28.8145 25.2572 28.7649C25.2387 28.7154 25.2057 28.6725 25.1627 28.6418C25.1196 28.6111 25.0683 28.594 25.0154 28.5926C24.9625 28.5912 24.9104 28.6057 24.8658 28.6341C21.0309 31.0297 23.543 36.1204 24.5351 37.8221C24.6174 37.9591 24.7418 38.0658 24.8898 38.1263C25.0378 38.1867 25.2013 38.1976 25.356 38.1574C25.6106 38.0975 25.5735 38.3097 25.5735 38.3097C25.2629 38.852 24.4238 39.0518 23.9134 39.1247C23.8076 39.1404 23.6997 39.1165 23.6104 39.0575C23.5212 38.9985 23.4568 38.9086 23.4298 38.8051C22.9584 36.929 20.8909 34.3576 19.8793 33.1851C19.7923 33.0829 19.6855 32.9995 19.5653 32.9399C19.4451 32.8803 19.314 32.8458 19.18 32.8385C19.046 32.8312 18.9119 32.8512 18.7859 32.8974C18.6599 32.9436 18.5447 33.0149 18.4471 33.107C16.7428 34.7416 15.8035 39.0486 15.8035 39.0486C15.1447 43.0847 19.8396 43.306 21.0843 43.2949C21.1906 43.294 21.2954 43.3204 21.3886 43.3716C21.4819 43.4228 21.5604 43.497 21.6168 43.5872C21.7237 43.7586 21.804 43.9451 21.855 44.1406C22.0998 45.0624 21.6747 46.0323 20.859 46.5251C15.8914 49.5249 12.0759 47.1305 10.9862 46.2901C10.9685 46.2768 10.9468 46.2698 10.9247 46.2703C10.9025 46.2709 10.8812 46.2789 10.8642 46.2931C10.8471 46.3072 10.8354 46.3267 10.8308 46.3484C10.8263 46.3701 10.8292 46.3927 10.8391 46.4125C10.9693 46.6586 11.1294 46.9177 11.2082 47.0414C11.2106 47.0451 11.2116 47.0496 11.2111 47.0541C11.2105 47.0585 11.2085 47.0626 11.2053 47.0658C11.2021 47.0689 11.1979 47.0708 11.1935 47.0712C11.189 47.0717 11.1846 47.0705 11.1808 47.068C8.88481 45.5708 11.1437 41.4129 11.9236 40.1246C11.9376 40.1017 11.9435 40.0746 11.9404 40.0479C11.9372 40.0212 11.9252 39.9963 11.9063 39.9772C11.8873 39.958 11.8625 39.9458 11.8358 39.9425C11.8091 39.9391 11.782 39.9448 11.7589 39.9586C10.4485 40.7567 9.50259 42.2202 8.90759 43.4056C8.13943 44.9302 8.00923 46.712 8.63157 48.3017C10.2662 52.4719 15.5913 52.0038 18.4491 51.4127C19.2695 51.2457 20.0445 50.9044 20.7217 50.4119C21.3988 49.9194 21.9622 49.2872 22.3739 48.5582C23.6758 46.2276 23.9414 43.4154 23.9922 42.5437C23.9974 42.4587 24.02 42.3756 24.0585 42.2996C24.097 42.2235 24.1507 42.1562 24.2161 42.1017C29.4136 37.7785 26.7062 34.2664 26.7062 34.2664ZM19.8103 39.6299C19.6801 39.4229 19.4392 39.2875 19.2745 39.2133C19.1839 39.1731 19.0891 39.1428 18.992 39.1228C17.4947 38.7973 17.2174 38.1652 17.2513 37.6906C17.2583 37.6011 17.2861 37.5145 17.3324 37.4376C17.3787 37.3607 17.4422 37.2956 17.518 37.2475C17.5937 37.1994 17.6797 37.1695 17.769 37.1604C17.8583 37.1512 17.9485 37.1629 18.0324 37.1946C19.158 37.6151 19.6872 39.1117 19.8363 39.6175C19.8369 39.6207 19.8364 39.6241 19.8349 39.627C19.8333 39.6298 19.8309 39.6322 19.828 39.6336C19.825 39.635 19.8217 39.6354 19.8185 39.6347C19.8153 39.634 19.8124 39.6324 19.8103 39.6299Z" fill="white"/>
</svg>
