<svg width="109" height="52" viewBox="0 0 109 52" fill="none" xmlns="http://www.w3.org/2000/svg">
<path d="M20.243 15.8586C19.0666 11.9527 14.6738 9.77448 14.2982 6.03458C14.297 6.02566 14.2926 6.01749 14.2858 6.01156C14.2791 6.00564 14.2704 6.00237 14.2614 6.00237C14.2524 6.00237 14.2437 6.00564 14.2369 6.01156C14.2302 6.01749 14.2258 6.02566 14.2246 6.03458C14.2021 6.37781 14.1448 6.71786 14.0534 7.04946C14.0463 7.07761 14.0301 7.1026 14.0072 7.12046C13.9843 7.13831 13.9561 7.14801 13.9271 7.14801C13.8981 7.14801 13.8699 7.13831 13.847 7.12046C13.8241 7.1026 13.8079 7.07761 13.8008 7.04946C13.5971 6.38741 13.3653 4.52625 14.7252 0.163996C14.733 0.135057 14.7306 0.104321 14.7183 0.0769737C14.7061 0.0496261 14.6847 0.0273411 14.658 0.0138788C14.6312 0.00041649 14.6006 -0.00339908 14.5713 0.00307613C14.5421 0.00955133 14.516 0.025921 14.4974 0.0494226C4.64342 14.7506 22.9543 13.6459 17.891 27.0659C17.2934 28.6472 22.0123 21.7376 20.243 15.8586Z" fill="white"/>
<path d="M10.5135 9.6461C11.3324 8.55896 9.92369 10.5874 10.6762 13.4498C10.6847 13.4811 10.7856 12.9368 10.9555 12.778C10.9655 12.7689 10.9778 12.7628 10.9911 12.7605C11.0044 12.7582 11.0181 12.7598 11.0306 12.7651C11.043 12.7704 11.0536 12.7791 11.0612 12.7903C11.0688 12.8015 11.073 12.8146 11.0733 12.8281C11.087 13.3098 11.2856 15.6449 13.7847 17.8817C16.3027 20.1348 17.7824 24.0823 16.1217 27.6393C16.1217 27.6393 14.2514 31.622 10.9269 29.3C10.8618 29.2557 9.46019 31.3994 7.32626 31.3994C7.32626 31.3994 5.84592 31.3122 4.94561 30.2231C4.93088 30.2059 4.91193 30.1929 4.89062 30.1853C4.86932 30.1777 4.84641 30.1757 4.82413 30.1797C4.80186 30.1836 4.78099 30.1933 4.7636 30.2078C4.7462 30.2222 4.73287 30.241 4.72493 30.2621C4.58562 30.6475 4.22822 31.4339 3.48805 31.9996C3.23077 32.1903 3.02642 32.4435 2.89436 32.7352C2.3944 33.8881 4.19633 32.842 4.35256 32.4C4.37274 32.3414 4.79979 33.3914 3.13587 35.5377C1.10545 38.1573 3.63323 39.8648 4.82843 41.3868C6.23196 43.179 6.36671 45.5648 4.67936 49.472C4.66325 49.5088 4.63512 49.539 4.59959 49.5577C4.56405 49.5764 4.52322 49.5825 4.48379 49.5749C4.44436 49.5673 4.40867 49.5466 4.38258 49.5161C4.35649 49.4856 4.34154 49.4471 4.3402 49.407C4.31871 48.0659 4.42157 45.5798 1.91983 43.5247C1.22588 42.9544 -1.79078 40.4475 1.52924 35.4687C2.25769 34.3751 0.741551 33.034 3.45486 30.8467C5.48658 29.2095 2.4914 28.0175 4.51791 24.6793C5.97091 22.285 6.54443 23.4691 6.76772 17.6864C6.80547 16.7138 10.3638 21.2239 7.94339 25.2476C5.90581 28.636 9.72254 28.3964 8.84306 27.433C8.35612 26.8992 7.89132 25.8569 9.8293 24.9176C11.0772 24.3121 14.6466 25.4572 12.3174 26.9226C11.2869 27.5703 12.9443 27.7838 13.3088 27.6094C19.3128 24.7366 3.12741 19.4545 10.5135 9.6461Z" fill="white"/>
<path d="M21.4042 24.0746C21.4693 23.9562 21.7088 23.9731 21.7297 24.1189C21.7707 24.4151 22.9236 24.7608 23.5029 25.042C23.7531 25.1631 23.9506 25.3712 24.0584 25.6274C24.1663 25.8836 24.1771 26.1702 24.0888 26.4338C23.8284 27.2215 23.3825 28.3458 22.7667 29.2272C22.7442 29.262 22.7147 29.2917 22.68 29.3143C22.6452 29.3369 22.6061 29.352 22.5652 29.3584C22.5243 29.3649 22.4824 29.3626 22.4425 29.3518C22.4025 29.3409 22.3652 29.3218 22.3331 29.2955C22.29 29.2583 22.2594 29.2088 22.2452 29.1536C22.2318 29.0878 22.2003 29.0269 22.1543 28.9779C22.1084 28.9288 22.0497 28.8934 21.9848 28.8757C18.3615 28.1628 20.6412 25.4079 21.4042 24.0746Z" fill="white"/>
<path d="M16.3734 33.706C16.5245 32.9424 16.8942 31.7081 17.7158 31.3885C17.7473 31.376 17.7758 31.3569 17.7994 31.3324C17.8229 31.3079 17.8409 31.2786 17.8521 31.2466C17.8633 31.2146 17.8676 31.1805 17.8645 31.1467C17.8614 31.1129 17.8511 31.0801 17.8342 31.0506C17.5563 30.5526 16.4294 29.3047 14.7173 31.0305C11.7384 34.0328 6.59433 39.2557 7.22188 33.2594C7.2243 33.2373 7.22195 33.2148 7.21499 33.1936C7.20802 33.1725 7.1966 33.153 7.18149 33.1366C7.16638 33.1202 7.14793 33.1072 7.12739 33.0985C7.10685 33.0899 7.08468 33.0857 7.06239 33.0863C4.67913 33.1344 3.12002 39.6612 7.10731 40.2002C8.49325 40.3877 9.75681 39.3188 11.1564 37.5312C12.7976 35.4344 13.94 34.3726 15.6749 34.3088C15.8422 34.3015 16.002 34.238 16.1288 34.1286C16.2555 34.0192 16.3417 33.8704 16.3734 33.706Z" fill="white"/>
<path d="M26.7062 34.2664C24.8118 32.1319 25.0136 29.9504 25.2668 28.9199C25.2791 28.8684 25.2758 28.8145 25.2572 28.7649C25.2387 28.7154 25.2057 28.6725 25.1627 28.6418C25.1196 28.6111 25.0683 28.594 25.0154 28.5926C24.9625 28.5912 24.9104 28.6057 24.8658 28.6341C21.0309 31.0297 23.543 36.1204 24.5351 37.8221C24.6174 37.9591 24.7418 38.0658 24.8898 38.1263C25.0378 38.1867 25.2013 38.1976 25.356 38.1574C25.6106 38.0975 25.5735 38.3097 25.5735 38.3097C25.2629 38.852 24.4238 39.0518 23.9134 39.1247C23.8076 39.1404 23.6997 39.1165 23.6104 39.0575C23.5212 38.9985 23.4568 38.9086 23.4298 38.8051C22.9584 36.929 20.8909 34.3576 19.8793 33.1851C19.7923 33.0829 19.6855 32.9995 19.5653 32.9399C19.4451 32.8803 19.314 32.8458 19.18 32.8385C19.046 32.8312 18.9119 32.8512 18.7859 32.8974C18.6599 32.9436 18.5447 33.0149 18.4471 33.107C16.7428 34.7416 15.8035 39.0486 15.8035 39.0486C15.1447 43.0847 19.8396 43.306 21.0843 43.2949C21.1906 43.294 21.2954 43.3204 21.3886 43.3716C21.4819 43.4228 21.5604 43.497 21.6168 43.5872C21.7237 43.7586 21.804 43.9451 21.855 44.1406C22.0998 45.0624 21.6747 46.0323 20.859 46.5251C15.8914 49.5249 12.0759 47.1305 10.9862 46.2901C10.9685 46.2768 10.9468 46.2698 10.9247 46.2703C10.9025 46.2709 10.8812 46.2789 10.8642 46.2931C10.8471 46.3072 10.8354 46.3267 10.8308 46.3484C10.8263 46.3701 10.8292 46.3927 10.8391 46.4125C10.9693 46.6586 11.1294 46.9177 11.2082 47.0414C11.2106 47.0451 11.2116 47.0496 11.2111 47.0541C11.2105 47.0585 11.2085 47.0626 11.2053 47.0658C11.2021 47.0689 11.1979 47.0708 11.1935 47.0712C11.189 47.0717 11.1846 47.0705 11.1808 47.068C8.88481 45.5708 11.1437 41.4129 11.9236 40.1246C11.9376 40.1017 11.9435 40.0746 11.9404 40.0479C11.9372 40.0212 11.9252 39.9963 11.9063 39.9772C11.8873 39.958 11.8625 39.9458 11.8358 39.9425C11.8091 39.9391 11.782 39.9448 11.7589 39.9586C10.4485 40.7567 9.50259 42.2202 8.90759 43.4056C8.13943 44.9302 8.00923 46.712 8.63157 48.3017C10.2662 52.4719 15.5913 52.0038 18.4491 51.4127C19.2695 51.2457 20.0445 50.9044 20.7217 50.4119C21.3988 49.9194 21.9622 49.2872 22.3739 48.5582C23.6758 46.2276 23.9414 43.4154 23.9922 42.5437C23.9974 42.4587 24.02 42.3756 24.0585 42.2996C24.097 42.2235 24.1507 42.1562 24.2161 42.1017C29.4136 37.7785 26.7062 34.2664 26.7062 34.2664ZM19.8103 39.6299C19.6801 39.4229 19.4392 39.2875 19.2745 39.2133C19.1839 39.1731 19.0891 39.1428 18.992 39.1228C17.4947 38.7973 17.2174 38.1652 17.2513 37.6906C17.2583 37.6011 17.2861 37.5145 17.3324 37.4376C17.3787 37.3607 17.4422 37.2956 17.518 37.2475C17.5937 37.1994 17.6797 37.1695 17.769 37.1604C17.8583 37.1512 17.9485 37.1629 18.0324 37.1946C19.158 37.6151 19.6872 39.1117 19.8363 39.6175C19.8369 39.6207 19.8364 39.6241 19.8349 39.627C19.8333 39.6298 19.8309 39.6322 19.828 39.6336C19.825 39.635 19.8217 39.6354 19.8185 39.6347C19.8153 39.634 19.8124 39.6324 19.8103 39.6299Z" fill="white"/>
<path fill-rule="evenodd" clip-rule="evenodd" d="M35.5753 26.0405H40.2163V26.6219C40.2163 26.6219 38.995 26.5706 38.7849 27.1886C38.6628 27.5647 38.7532 34.7191 38.7849 36.6145C38.7877 36.7728 38.8277 36.9281 38.9015 37.0681C38.9753 37.2081 39.081 37.3289 39.2099 37.4206C39.4248 37.5863 39.6759 37.6985 39.9427 37.7479V38.2755H34.591V37.765C34.9421 37.6545 35.2676 37.4752 35.5485 37.2374C35.6388 37.0736 35.6772 36.8862 35.6584 36.7V27.4401C35.6587 27.2979 35.6213 27.1581 35.5501 27.035C35.4789 26.9119 35.3763 26.8098 35.2529 26.7391C34.9436 26.5943 34.6052 26.5224 34.2637 26.529V26.0405H35.5753ZM104.359 27.7179H109V28.2992C109 28.2992 107.779 28.2455 107.569 28.8659C107.448 29.239 107.535 34.4844 107.568 36.4197L107.569 36.4673C107.571 36.6256 107.611 36.7811 107.685 36.9211C107.759 37.0612 107.864 37.1819 107.994 37.2733C108.208 37.439 108.46 37.5512 108.726 37.6006V38.1282H103.365V37.6177C103.716 37.5073 104.042 37.3279 104.322 37.0901C104.413 36.9272 104.451 36.7405 104.432 36.5552V29.1102C104.433 28.9679 104.395 28.8281 104.324 28.705C104.253 28.5819 104.15 28.4798 104.027 28.4091C103.718 28.2631 103.379 28.1904 103.038 28.1966V27.7081L104.359 27.7179ZM42.3389 36.4955V29.2337C42.3389 28.2762 41.1836 28.071 41.1836 28.071V27.497H45.8025V28.1003C45.8025 28.1003 44.7449 28.5009 44.7449 29.2117V36.5956C44.7449 36.7358 44.8004 36.8702 44.8992 36.9696C44.9981 37.0689 45.1323 37.125 45.2725 37.1257H47.1899C47.4444 37.1266 47.6962 37.0742 47.9293 36.972C48.1623 36.8698 48.3714 36.72 48.5431 36.5321C48.973 36.0558 49.4737 35.3524 49.503 34.5903H50.1137C50.1137 34.5903 50.6706 38.2371 48.1914 38.2737C45.7121 38.3103 41.3716 38.2737 41.3716 38.2737V37.199H41.6354C41.822 37.199 42.0009 37.1249 42.1329 36.9929C42.2648 36.861 42.3389 36.6821 42.3389 36.4955ZM50.6113 38.1277H53.0197V37.5806H52.7266C52.6541 37.5806 52.5845 37.5518 52.5332 37.5005C52.4819 37.4492 52.4531 37.3796 52.4531 37.307V32.6954C52.4524 32.6719 52.4595 32.6489 52.4732 32.6298C52.4868 32.6107 52.5064 32.5967 52.5288 32.5897C52.5512 32.5828 52.5753 32.5834 52.5974 32.5915C52.6194 32.5995 52.6382 32.6146 52.6509 32.6343L56.1121 37.671C56.1474 37.7219 56.1945 37.7634 56.2494 37.7922C56.3042 37.8209 56.3652 37.8359 56.4272 37.8359C56.4891 37.8359 56.5501 37.8209 56.605 37.7922C56.6599 37.7634 56.707 37.7219 56.7423 37.671L60.5234 32.1263C60.5365 32.1053 60.5562 32.0892 60.5794 32.0805C60.6025 32.0718 60.6279 32.0711 60.6516 32.0783C60.6753 32.0855 60.6959 32.1004 60.7103 32.1205C60.7246 32.1407 60.7319 32.165 60.731 32.1898V37.075C60.731 37.2007 60.6811 37.3212 60.5922 37.4101C60.5034 37.4989 60.3828 37.5488 60.2572 37.5488H60.2205V38.1326H64.1043V37.5855H63.9553C63.8603 37.5864 63.7682 37.5527 63.6963 37.4906C63.6244 37.4286 63.5775 37.3425 63.5644 37.2484L62.1135 27.3412C62.1076 27.2893 62.0852 27.2406 62.0496 27.2023C62.0139 27.1641 61.967 27.1382 61.9155 27.1287C61.8641 27.1191 61.811 27.1263 61.764 27.1492C61.717 27.172 61.6785 27.2094 61.6543 27.2557L57.5019 34.5982C57.4862 34.6268 57.4633 34.6509 57.4356 34.6681C57.4079 34.6853 57.3762 34.6952 57.3436 34.6966C57.311 34.6981 57.2785 34.6912 57.2494 34.6765C57.2202 34.6618 57.1953 34.6399 57.1771 34.6128L52.392 27.4707C52.3757 27.4458 52.3522 27.4266 52.3246 27.4157C52.2969 27.4048 52.2666 27.4026 52.2377 27.4096C52.2089 27.4165 52.1828 27.4322 52.1632 27.4545C52.1436 27.4769 52.1314 27.5047 52.1282 27.5342L51.1194 37.2826C51.1128 37.3461 51.0829 37.4049 51.0356 37.4477C50.9883 37.4906 50.9268 37.5144 50.8629 37.5146H50.6113V38.1277ZM69.4497 38.1273H66.0594L66.0691 37.6046H66.2963C66.3611 37.6046 66.4232 37.5788 66.469 37.533C66.5148 37.4872 66.5406 37.4251 66.5406 37.3603V27.1673C66.5398 27.1075 66.5561 27.0488 66.5877 26.998C66.6193 26.9472 66.6648 26.9066 66.7188 26.8808C66.7728 26.8551 66.833 26.8454 66.8923 26.8529C66.9517 26.8604 67.0076 26.8848 67.0535 26.9231L74.7892 33.4766C74.8267 33.5084 74.8725 33.5288 74.9212 33.5354C74.97 33.5419 75.0196 33.5343 75.0641 33.5134C75.1086 33.4926 75.1462 33.4594 75.1724 33.4178C75.1986 33.3761 75.2123 33.3279 75.2118 33.2787V27.4165C75.2118 27.3219 75.1742 27.2312 75.1073 27.1643C75.0405 27.0974 74.9498 27.0599 74.8552 27.0599H74.6842V26.5005H77.6837V27.1258H77.3906C77.2822 27.1258 77.1782 27.1687 77.1013 27.2451C77.0244 27.3216 76.9809 27.4253 76.9802 27.5337V37.6583C76.9876 37.7221 76.9739 37.7866 76.9413 37.8419C76.9087 37.8973 76.859 37.9405 76.7997 37.9651C76.7403 37.9896 76.6746 37.9942 76.6124 37.9781C76.5502 37.9619 76.495 37.926 76.4551 37.8757L69.4326 30.8557C69.3911 30.8185 69.3399 30.7939 69.285 30.7848C69.23 30.7757 69.1736 30.7824 69.1224 30.8042C69.0711 30.826 69.0271 30.8619 68.9955 30.9078C68.964 30.9537 68.9461 31.0076 68.9441 31.0633V37.2699C68.9441 37.3548 68.9778 37.4362 69.0378 37.4962C69.0978 37.5562 69.1792 37.5899 69.2641 37.5899H69.4497V38.1273ZM79.9478 27.9534H83.514V28.5372H83.1891C83.1153 28.5372 83.0445 28.5665 82.9922 28.6187C82.94 28.671 82.9107 28.7418 82.9107 28.8156V34.1039C82.9014 34.764 83.0726 35.4141 83.4058 35.984C83.739 36.554 84.2215 37.0221 84.8013 37.3379C85.2281 37.5875 85.7227 37.6967 86.2149 37.6498C86.7072 37.6028 87.1723 37.4023 87.5443 37.0765C87.9322 36.755 88.2432 36.3508 88.4545 35.8935C88.6658 35.4362 88.7721 34.9374 88.7656 34.4336V28.8645C88.7656 28.7796 88.7319 28.6982 88.6719 28.6382C88.6119 28.5782 88.5305 28.5445 88.4456 28.5445H87.8789L87.8643 27.8875H90.7001V28.5079H90.175C90.1208 28.5079 90.0671 28.5186 90.017 28.5393C89.9669 28.56 89.9214 28.5904 89.8831 28.6288C89.8447 28.6671 89.8143 28.7126 89.7936 28.7627C89.7729 28.8128 89.7622 28.8665 89.7622 28.9207V35.0052C89.7685 35.6733 89.6086 36.3324 89.2969 36.9234C88.9852 37.5143 88.5315 38.0185 87.9766 38.3906C87.4765 38.7156 86.9139 38.9326 86.3251 39.0277C85.7362 39.1227 85.134 39.0938 84.557 38.9427C81.6259 38.2929 80.4632 36.6051 80.5267 33.1806V28.6764C80.5267 28.6116 80.501 28.5495 80.4552 28.5037C80.4094 28.4579 80.3472 28.4322 80.2824 28.4322H79.9234L79.9478 27.9534ZM92.1765 37.143H92.6161L92.6112 37.1455C92.6729 37.1465 92.7342 37.1352 92.7915 37.1123C92.8488 37.0895 92.901 37.0555 92.945 37.0123C92.9891 36.9691 93.0242 36.9177 93.0482 36.8609C93.0723 36.8041 93.0848 36.7431 93.0851 36.6814V28.9066C93.0851 28.7725 93.0318 28.6439 92.937 28.5491C92.8422 28.4542 92.7136 28.401 92.5795 28.401H92.1716V27.4972H97.2571C98.252 27.4866 99.2198 27.8215 99.9952 28.4449C102.113 30.1865 99.9879 32.143 98.8863 32.9564C98.8178 33.0079 98.7612 33.0735 98.7203 33.1488C98.6794 33.224 98.6551 33.3071 98.6491 33.3926C98.643 33.478 98.6554 33.5638 98.6854 33.644C98.7154 33.7243 98.7622 33.7972 98.8228 33.8577L101.754 36.7889C102.108 37.1445 102.307 37.6256 102.308 38.1274H99.7192L96.7881 33.5768C96.7272 33.4817 96.6986 33.3696 96.7066 33.2569C96.7145 33.1443 96.7585 33.0372 96.8321 32.9515C100.432 28.8528 96.4437 28.8333 95.3421 28.8993C95.2701 28.903 95.2024 28.9343 95.1529 28.9865C95.1033 29.0388 95.0757 29.1081 95.0758 29.1802V36.6374C95.0765 36.7717 95.1303 36.9003 95.2255 36.9951C95.3207 37.0898 95.4496 37.143 95.5839 37.143H95.9894V38.1201H92.1765V37.143Z" fill="white"/>
</svg>
